REM DIRINDEX 1\2,1\4,1\5,1\6,1\7,1\3\8,1\3\9,1\3\10
REM DIRNAME folder01,folder02,folder03,folder04,folder05,folder06,folder07,folder08,folder09,folder10
TITLE ""
FILE "DB4500_5th_6C_27.mp3" MP3
  TRACK 01 AUDIO
    TITLE "8:cjc113_4370"
    INDEX 01 00:00:00
  TRACK 02 AUDIO
    TITLE "0:"
    INDEX 01 00:01:15
  TRACK 03 AUDIO
    TITLE "9:cjc113_4371"
    INDEX 01 00:01:21
  TRACK 04 AUDIO
    TITLE "0:"
    INDEX 01 00:02:49
  TRACK 05 AUDIO
    TITLE "10:cjc113_4372"
    INDEX 01 00:02:55
  TRACK 06 AUDIO
    TITLE "0:"
    INDEX 01 00:05:46
  TRACK 07 AUDIO
    TITLE "8:cjc113_4373"
    INDEX 01 00:06:04
  TRACK 08 AUDIO
    TITLE "0:"
    INDEX 01 00:07:13
  TRACK 09 AUDIO
    TITLE "9:cjc113_4374"
    INDEX 01 00:07:23
  TRACK 10 AUDIO
    TITLE "0:"
    INDEX 01 00:08:54
  TRACK 11 AUDIO
    TITLE "10:cjc113_4375"
    INDEX 01 00:08:62
  TRACK 12 AUDIO
    TITLE "0:"
    INDEX 01 00:12:24
  TRACK 13 AUDIO
    TITLE "10:cjc113_4376"
    INDEX 01 00:12:44
  TRACK 14 AUDIO
    TITLE "0:"
    INDEX 01 00:16:06
  TRACK 15 AUDIO
    TITLE "8:cjc113_4377"
    INDEX 01 00:16:38
  TRACK 16 AUDIO
    TITLE "0:"
    INDEX 01 00:17:45
  TRACK 17 AUDIO
    TITLE "9:cjc113_4378"
    INDEX 01 00:17:51
  TRACK 18 AUDIO
    TITLE "0:"
    INDEX 01 00:18:46
  TRACK 19 AUDIO
    TITLE "10:cjc113_4379"
    INDEX 01 00:18:52
  TRACK 20 AUDIO
    TITLE "0:"
    INDEX 01 00:22:72
  TRACK 21 AUDIO
    TITLE "8:cjc113_4380"
    INDEX 01 00:23:30
  TRACK 22 AUDIO
    TITLE "0:"
    INDEX 01 00:24:27
  TRACK 23 AUDIO
    TITLE "9:cjc113_4381"
    INDEX 01 00:24:33
  TRACK 24 AUDIO
    TITLE "0:"
    INDEX 01 00:25:58
  TRACK 25 AUDIO
    TITLE "10:cjc113_4382"
    INDEX 01 00:25:70
  TRACK 26 AUDIO
    TITLE "0:"
    INDEX 01 00:28:25
  TRACK 27 AUDIO
    TITLE "8:cjc113_4383"
    INDEX 01 00:28:57
  TRACK 28 AUDIO
    TITLE "0:"
    INDEX 01 00:29:64
  TRACK 29 AUDIO
    TITLE "9:cjc113_4384"
    INDEX 01 00:29:72
  TRACK 30 AUDIO
    TITLE "0:"
    INDEX 01 00:31:39
  TRACK 31 AUDIO
    TITLE "10:cjc113_4385"
    INDEX 01 00:31:45
  TRACK 32 AUDIO
    TITLE "0:"
    INDEX 01 00:34:12
  TRACK 33 AUDIO
    TITLE "8:cjc113_4386"
    INDEX 01 00:34:43
  TRACK 34 AUDIO
    TITLE "0:"
    INDEX 01 00:35:55
  TRACK 35 AUDIO
    TITLE "9:cjc113_4387"
    INDEX 01 00:35:63
  TRACK 36 AUDIO
    TITLE "0:"
    INDEX 01 00:37:18
  TRACK 37 AUDIO
    TITLE "10:cjc113_4388"
    INDEX 01 00:37:28
  TRACK 38 AUDIO
    TITLE "0:"
    INDEX 01 00:40:72
  TRACK 39 AUDIO
    TITLE "8:cjc113_4389"
    INDEX 01 00:41:26
  TRACK 40 AUDIO
    TITLE "0:"
    INDEX 01 00:42:61
  TRACK 41 AUDIO
    TITLE "9:cjc113_4390"
    INDEX 01 00:42:68
  TRACK 42 AUDIO
    TITLE "0:"
    INDEX 01 00:44:09
  TRACK 43 AUDIO
    TITLE "10:cjc113_4391"
    INDEX 01 00:44:16
  TRACK 44 AUDIO
    TITLE "0:"
    INDEX 01 00:49:00
  TRACK 45 AUDIO
    TITLE "8:cjc113_4392"
    INDEX 01 00:49:43
  TRACK 46 AUDIO
    TITLE "0:"
    INDEX 01 00:50:48
  TRACK 47 AUDIO
    TITLE "9:cjc113_4393"
    INDEX 01 00:50:58
  TRACK 48 AUDIO
    TITLE "0:"
    INDEX 01 00:52:18
  TRACK 49 AUDIO
    TITLE "10:cjc113_4394"
    INDEX 01 00:52:28
  TRACK 50 AUDIO
    TITLE "0:"
    INDEX 01 00:55:36
  TRACK 51 AUDIO
    TITLE "8:cjc113_4395"
    INDEX 01 00:55:69
  TRACK 52 AUDIO
    TITLE "0:"
    INDEX 01 00:56:74
  TRACK 53 AUDIO
    TITLE "9:cjc113_4396"
    INDEX 01 00:57:11
  TRACK 54 AUDIO
    TITLE "0:"
    INDEX 01 00:58:54
  TRACK 55 AUDIO
    TITLE "10:cjc113_4397"
    INDEX 01 00:58:62
  TRACK 56 AUDIO
    TITLE "0:"
    INDEX 01 01:03:22
  TRACK 57 AUDIO
    TITLE "8:cjc113_4398"
    INDEX 01 01:03:59
  TRACK 58 AUDIO
    TITLE "0:"
    INDEX 01 01:04:72
  TRACK 59 AUDIO
    TITLE "9:cjc113_4399"
    INDEX 01 01:05:03
  TRACK 60 AUDIO
    TITLE "0:"
    INDEX 01 01:06:18
  TRACK 61 AUDIO
    TITLE "10:cjc113_4400"
    INDEX 01 01:06:26
  TRACK 62 AUDIO
    TITLE "0:"
    INDEX 01 01:10:12
